                                               0                                
                                               0111                             
                                               10101                            
                                               00111                            
                                              0001100                           
                       01                     11110101           100            
                       101                    000 0011           011            
                        01                   1011  1111          101            
                                             111   1011          010            
                       1001                 0111    0101         110101         
                       1100             01010100111000100 00     1011111        
                       1111         00010  0110  1101010100      11 0010        
                       0011        1011    1001     111000       10 1010        
                       1110      1011     1111         101       11  011        
                       0110     001       100           001      00  11         
                       1101     01       1111            10      11  00         
                        111    01        011             110      0  00         
                        11     0        100                11     1  00         
                        10     0       100                  0        110        
                        01     00    1000                    1        01        
                        11       1100111                     00       01        
     001100000000110   000                                            101       
    0                  01                                              00       
    10               100                                                10      
          000011000                                                      10     
                                                                                

                                      Proudly Canadian


Call Me Fitz | s02 e10 | How Do You Say Blowjob in Pennsylvania Dutch?

This episode first aired on HBO Canada on 20 November 2011.

While on the lam for Sonja's murder Fitz and Larry cross paths with the fortune teller at her other job as a waitress. For their last $20 she again tells Fitz his fortune, which leads them to an old barn that Larry fears is the home of cannibals. Inside Fitz finds what he has been looking for and more. The sniper who held everyone at the dealership hostage is revealed. Chester grows a pair and gives Dot a taste of her own medicine.  


Cast
Jason Priestley   ...  Richard "Fitz" Fitzpatrick
Ernie Grunwald    ...  Larry, Fitz' conscience
Tracy Dawson      ...  Meghan Fitzpatrick, Fitz' sister
Jonathan Torrens  ...  Chester Vince, the prosecutor
Kathleen Munro    ...  Ali Devon, defence lawyer and one of Fitz' recurring hook-ups
Amy Sloan         ...  Dot Foxley, the dealership office manager
Brooke Nevin      ...  Sonja Lester
Shaun Shetty      ...  Ruptal 2
Huse Madhavji     ...  Ruptal 1
Steve Byers       ...  Olaf Stoltzfus
Rachel Crawford   ...  Laverne
Josh Cruddas      ...  Caleb Lester
Kathryn McCormack ...  Edith


Complete name                    : Call.Me.Fitz.s02e10.How.Do.You.Say.Blowjob.In.Pennsylvania.Dutch.WS.XviD-jAh.avi
Format                           : AVI
Format/Info                      : Audio Video Interleave
File size                        : 233 MiB
Duration                         : 27mn 33s
Overall bit rate mode            : Variable
Overall bit rate                 : 1 182 Kbps
Writing application              : VirtualDubMod 1.5.4.1 (build 2178/release)
Writing library                  : VirtualDubMod build 2178/release

Video
ID                               : 0
Format                           : MPEG-4 Visual
Format profile                   : Advanced Simple@L5
Format settings, BVOP            : 1
Format settings, QPel            : No
Format settings, GMC             : No warppoints
Format settings, Matrix          : Default (H.263)
Muxing mode                      : Packed bitstream
Codec ID                         : XVID
Codec ID/Hint                    : XviD
Duration                         : 27mn 33s
Bit rate                         : 1 059 Kbps
Width                            : 624 pixels
Height                           : 352 pixels
Display aspect ratio             : 16:9
Frame rate                       : 23.976 fps
Color space                      : YUV
Chroma subsampling               : 4:2:0
Bit depth                        : 8 bits
Scan type                        : Progressive
Compression mode                 : Lossy
Bits/(Pixel*Frame)               : 0.201
Stream size                      : 209 MiB (90%)
Writing library                  : XviD 1.2.1 (UTC 2008-12-04)

Audio
ID                               : 1
Format                           : MPEG Audio
Format version                   : Version 1
Format profile                   : Layer 3
Mode                             : Joint stereo
Mode extension                   : MS Stereo
Codec ID                         : 55
Codec ID/Hint                    : MP3
Duration                         : 27mn 33s
Bit rate mode                    : Variable
Bit rate                         : 110 Kbps
Nominal bit rate                 : 128 Kbps
Channel(s)                       : 2 channels
Sampling rate                    : 48.0 KHz
Compression mode                 : Lossy
Stream size                      : 21.7 MiB (9%)
Alignment                        : Aligned on interleaves
Interleave, duration             : 24 ms (0.58 video frame)
Interleave, preload duration     : 443 ms
Writing library                  : LAME3.98r
Encoding settings                : -m j -V 4 -q 2 -lowpass 17 --abr 128

So, to answer the question posed by the title of the episode, believe in yourself. 
